<?xml version="1.0" encoding="UTF-8"?>
<svg id="Layer_1" xmlns="http://www.w3.org/2000/svg" version="1.1" viewBox="0 0 100 125">
  <!-- Generator: Adobe Illustrator 29.8.2, SVG Export Plug-In . SVG Version: 2.1.1 Build 3)  -->
  <path d="M45.5,20c-14.08,0-25.49,11.43-25.49,25.51,0,14.08,11.43,25.49,25.51,25.49,5.38,0,10.62-1.71,14.98-4.87l12.7,12.7c1.56,1.56,4.1,1.56,5.66,0s1.56-4.1,0-5.66l-12.7-12.7c8.28-11.38,5.77-27.32-5.61-35.59-4.37-3.18-9.64-4.89-15.05-4.88ZM45.5,63c-9.66,0-17.5-7.84-17.5-17.5s7.84-17.5,17.5-17.5,17.5,7.84,17.5,17.5c-.01,9.66-7.84,17.49-17.5,17.5Z"/>
</svg>